# OBJ generated by ONSHAPE BY PTC INC, 1.210 Units = meters
mtllib velux-sealing-element.mtl
g Part 1
v -0.0257086 -0.01 0.010495 
v -0.0257086 0 0.010495 
v -0.0371053 0 0.010495 
v -0.0371053 -0.01 0.010495 
v -0.0374006 0 0.010495 
v -0.0374006 -0.01 0.010495 
v -0.0374006 0 -0.000606481 
v -0.0374006 -0.01 -0.000606481 
v -0.0353929 0 -0.00279135 
v -0.0353929 -0.01 -0.00279135 
v -0.00966891 0 -0.00332281 
v -0.00966891 -0.01 -0.00332281 
v -0.00155692 0 -0.0118261 
v -0.00155692 -0.01 -0.0118261 
v -0.00155692 0 -0.021038 
v -0.00155692 -0.01 -0.021038 
v -0.00966891 0 -0.0182988 
v -0.00966891 -0.01 -0.0182988 
v -0.0110641 0 -0.0196798 
v -0.0110641 -0.01 -0.0196798 
v 0.000509852 0 -0.0313718 
v 0.000509852 -0.01 -0.0313718 
v 0.00369858 0 -0.0287145 
v 0.00369858 -0.01 -0.0287145 
v 0.00676921 0 -0.00107888 
v 0.00676921 -0.01 -0.00107888 
v 0.00789117 0 0.000633582 
v 0.00789117 -0.01 0.000633582 
v 0.0160992 0 0.00523952 
v 0.0160992 -0.01 0.00523952 
v 0.0250749 0 0.0117351 
v 0.0250749 -0.01 0.0117351 
v 0.0308618 0 0.017463 
v 0.0308618 -0.01 0.017463 
v 0.0355859 0 0.0245491 
v 0.0355859 -0.01 0.0245491 
v 0.038306 0 0.0300378 
v 0.038306 -0.01 0.0300378 
v 0.0354087 0 0.0322847 
v 0.0354087 -0.01 0.0322847 
v 0.0331648 0 0.0293912 
v 0.0331648 -0.01 0.0293912 
v 0.0289132 0 0.0239585 
v 0.0289132 -0.01 0.0239585 
v 0.0225948 0 0.0178763 
v 0.0225948 -0.01 0.0178763 
v 0.0183431 0 0.0152781 
v 0.0183431 -0.01 0.0152781 
v 0.0130876 0 0.0125618 
v 0.0130876 -0.01 0.0125618 
v 0.00647396 0 0.0112036 
v 0.00647396 -0.01 0.0112036 
v -0.00226552 0 0.0106722 
v -0.00226552 -0.01 0.0106722 
v -0.00769817 0 0.0106722 
v -0.00769817 -0.01 0.0106722 
v -0.0146661 0 0.00506237 
v -0.0146661 -0.01 0.00506237 
v -0.0233466 0 0.00506237 
v -0.0233466 -0.01 0.00506237 
v -0.0257086 -0.01 0.00748344 
v -0.0247638 -0.01 0.00606623 
v -0.0257086 0 0.00748344 
v -0.0247638 0 0.00606623 
vn 0 0 1 
vn -3.15426e-06 0 1 
vn -1 0 0 
vn -0.736327 0 -0.676625 
vn -0.0206555 0 -0.999787 
vn -0.723558 0 -0.690263 
vn -1 0 0 
vn 0.319928 0 0.947442 
vn -0.703508 0 0.710687 
vn -0.710687 0 -0.703508 
vn 0.640184 0 -0.768221 
vn 0.993884 0 -0.110431 
vn 0.836461 0 -0.548026 
vn 0.489367 0 -0.872078 
vn 0.586269 0 -0.810117 
vn 0.703471 0 -0.710724 
vn 0.83205 0 -0.5547 
vn 0.896009 0 -0.444037 
vn 0.612823 0 0.79022 
vn -0.79022 0 0.612823 
vn -0.787505 0 0.616308 
vn -0.693512 0 0.720445 
vn -0.52145 0 0.853282 
vn -0.459151 0 0.888358 
vn -0.201159 0 0.979559 
vn -0.0606986 0 0.998156 
vn 0 0 1 
vn -0.627107 0 0.778933 
vn 0 -1 0 
vn 0 1 0 
vn 0.578017 0 0.816025 
vn 0.83205 0 0.554701 
vn 1 0 0 
usemtl 0.615686_0.811765_0.929412_0.000000_0.000000
o mesh0
f 1//1 2//1 3//1 
f 3//1 4//1 1//1 
o mesh1
f 4//2 3//2 5//2 
f 5//2 6//2 4//2 
o mesh2
f 6//3 5//3 7//3 
f 7//3 8//3 6//3 
o mesh3
f 8//4 7//4 9//4 
f 9//4 10//4 8//4 
o mesh4
f 10//5 9//5 11//5 
f 11//5 12//5 10//5 
o mesh5
f 12//6 11//6 13//6 
f 13//6 14//6 12//6 
o mesh6
f 14//7 13//7 15//7 
f 15//7 16//7 14//7 
o mesh7
f 16//8 15//8 17//8 
f 17//8 18//8 16//8 
o mesh8
f 18//9 17//9 19//9 
f 19//9 20//9 18//9 
o mesh9
f 20//10 19//10 21//10 
f 21//10 22//10 20//10 
o mesh10
f 22//11 21//11 23//11 
f 23//11 24//11 22//11 
o mesh11
f 24//12 23//12 25//12 
f 25//12 26//12 24//12 
o mesh12
f 26//13 25//13 27//13 
f 27//13 28//13 26//13 
o mesh13
f 28//14 27//14 29//14 
f 29//14 30//14 28//14 
o mesh14
f 30//15 29//15 31//15 
f 31//15 32//15 30//15 
o mesh15
f 32//16 31//16 33//16 
f 33//16 34//16 32//16 
o mesh16
f 34//17 33//17 35//17 
f 35//17 36//17 34//17 
o mesh17
f 36//18 35//18 37//18 
f 37//18 38//18 36//18 
o mesh18
f 38//19 37//19 39//19 
f 39//19 40//19 38//19 
o mesh19
f 40//20 39//20 41//20 
f 41//20 42//20 40//20 
o mesh20
f 42//21 41//21 43//21 
f 43//21 44//21 42//21 
o mesh21
f 44//22 43//22 45//22 
f 45//22 46//22 44//22 
o mesh22
f 46//23 45//23 47//23 
f 47//23 48//23 46//23 
o mesh23
f 48//24 47//24 49//24 
f 49//24 50//24 48//24 
o mesh24
f 50//25 49//25 51//25 
f 51//25 52//25 50//25 
o mesh25
f 52//26 51//26 53//26 
f 53//26 54//26 52//26 
o mesh26
f 54//27 53//27 55//27 
f 55//27 56//27 54//27 
o mesh27
f 56//28 55//28 57//28 
f 57//28 58//28 56//28 
o mesh28
f 58//27 57//27 59//27 
f 59//27 60//27 58//27 
o mesh29
f 36//29 42//29 44//29 
f 38//29 40//29 42//29 
f 30//29 32//29 48//29 
f 46//29 32//29 34//29 
f 42//29 36//29 38//29 
f 28//29 30//29 50//29 
f 32//29 46//29 48//29 
f 44//29 34//29 36//29 
f 4//29 8//29 61//29 
f 8//29 10//29 62//29 
f 50//29 52//29 28//29 
f 34//29 44//29 46//29 
f 26//29 54//29 12//29 
f 61//29 1//29 4//29 
f 10//29 60//29 62//29 
f 48//29 50//29 30//29 
f 12//29 14//29 26//29 
f 62//29 61//29 8//29 
f 12//29 58//29 60//29 
f 26//29 14//29 16//29 
f 26//29 28//29 54//29 
f 60//29 10//29 12//29 
f 12//29 54//29 56//29 
f 20//29 22//29 16//29 
f 52//29 54//29 28//29 
f 56//29 58//29 12//29 
f 22//29 24//29 16//29 
f 4//29 6//29 8//29 
f 16//29 24//29 26//29 
f 16//29 18//29 20//29 
o mesh30
f 37//30 35//30 41//30 
f 35//30 33//30 43//30 
f 43//30 41//30 35//30 
f 45//30 43//30 33//30 
f 29//30 49//30 47//30 
f 7//30 63//30 64//30 
f 3//30 2//30 63//30 
f 33//30 31//30 45//30 
f 47//30 31//30 29//30 
f 27//30 51//30 49//30 
f 64//30 9//30 7//30 
f 7//30 5//30 3//30 
f 47//30 45//30 31//30 
f 27//30 53//30 51//30 
f 11//30 9//30 59//30 
f 63//30 7//30 3//30 
f 27//30 13//30 11//30 
f 49//30 29//30 27//30 
f 25//30 23//30 15//30 
f 11//30 57//30 55//30 
f 64//30 59//30 9//30 
f 41//30 39//30 37//30 
f 13//30 27//30 25//30 
f 59//30 57//30 11//30 
f 15//30 13//30 25//30 
f 19//30 17//30 15//30 
f 11//30 53//30 27//30 
f 15//30 21//30 19//30 
f 15//30 23//30 21//30 
f 55//30 53//30 11//30 
o mesh31
f 60//31 59//31 64//31 
f 64//31 62//31 60//31 
o mesh32
f 62//32 64//32 63//32 
f 63//32 61//32 62//32 
o mesh33
f 61//33 63//33 2//33 
f 2//33 1//33 61//33 
